<svg xmlns="http://www.w3.org/2000/svg" viewBox="0 0 512 512" width="512" height="512">
  <defs>
    <linearGradient id="bg" x1="0%" y1="0%" x2="100%" y2="100%">
      <stop offset="0%" stop-color="#0B132B" />
      <stop offset="100%" stop-color="#1C2541" />
    </linearGradient>
    
    <linearGradient id="brandGlow" x1="0%" y1="0%" x2="100%" y2="100%">
      <stop offset="0%" stop-color="#06B6D4" /> <stop offset="100%" stop-color="#3B82F6" /> </linearGradient>
    
    <filter id="glow" x="-20%" y="-20%" width="140%" height="140%">
      <feGaussianBlur stdDeviation="12" result="blur" />
      <feComposite in="SourceGraphic" in2="blur" operator="over" />
    </filter>
  </defs>

  <rect width="512" height="512" rx="115" fill="url(#bg)" />

  <path d="M256 80 L410 130 V260 C410 380 256 450 256 450 C256 450 102 380 102 260 V130 Z"
        fill="none" stroke="rgba(6, 182, 212, 0.15)" stroke-width="8" stroke-linejoin="round" />

  <path d="M256 115 L375 160 V260 C375 350 256 410 256 410 C256 410 137 350 137 260 V160 Z"
        fill="none" stroke="url(#brandGlow)" stroke-width="16" stroke-linejoin="round" filter="url(#glow)" />

  <path d="M236 196 H276 V236 H316 V276 H276 V316 H236 V276 H196 V236 H236 Z"
        fill="#10B981" filter="url(#glow)"/>

  <circle cx="256" cy="256" r="12" fill="#FFFFFF" />
  
  <circle cx="196" cy="256" r="7" fill="#06B6D4" />
  <circle cx="316" cy="256" r="7" fill="#06B6D4" />
  <circle cx="256" cy="196" r="7" fill="#06B6D4" />
  <circle cx="256" cy="316" r="7" fill="#06B6D4" />
  
  <line x1="208" y1="256" x2="230" y2="256" stroke="#FFFFFF" stroke-width="3" opacity="0.8" />
  <line x1="304" y1="256" x2="282" y2="256" stroke="#FFFFFF" stroke-width="3" opacity="0.8" />
  <line x1="256" y1="208" x2="256" y2="230" stroke="#FFFFFF" stroke-width="3" opacity="0.8" />
  <line x1="256" y1="304" x2="256" y2="282" stroke="#FFFFFF" stroke-width="3" opacity="0.8" />
</svg>
